<svg xmlns="http://www.w3.org/2000/svg" xmlns:xlink="http://www.w3.org/1999/xlink" width="500" zoomAndPan="magnify" viewBox="0 0 375 374.999991" height="500" preserveAspectRatio="xMidYMid meet" version="1.0"><defs><clipPath id="0d90f81e6c"><path d="M 213 103 L 279 103 L 279 170 L 213 170 Z M 213 103 " clip-rule="nonzero"/></clipPath><clipPath id="9f0d99250b"><path d="M 275.878906 102.324219 L 280.246094 106.695312 L 216.144531 170.796875 L 211.777344 166.429688 Z M 275.878906 102.324219 " clip-rule="nonzero"/></clipPath><clipPath id="f9d471617d"><path d="M 278.0625 104.511719 C 278.644531 105.089844 278.96875 105.875 278.96875 106.695312 C 278.96875 107.515625 278.644531 108.300781 278.0625 108.878906 L 218.339844 168.601562 C 217.761719 169.179688 216.976562 169.507812 216.15625 169.507812 C 215.335938 169.507812 214.550781 169.179688 213.972656 168.601562 C 213.390625 168.023438 213.066406 167.238281 213.066406 166.417969 C 213.066406 165.597656 213.390625 164.8125 213.972656 164.234375 L 273.695312 104.511719 C 274.273438 103.929688 275.058594 103.605469 275.878906 103.605469 C 276.699219 103.605469 277.484375 103.929688 278.0625 104.511719 Z M 278.0625 104.511719 " clip-rule="nonzero"/></clipPath><clipPath id="9eee5a4f76"><path d="M 201.558594 108.113281 L 206.839844 108.113281 L 206.839844 258.132812 L 201.558594 258.132812 Z M 201.558594 108.113281 " clip-rule="nonzero"/></clipPath><clipPath id="62909d8a88"><path d="M 204.199219 108.113281 C 205.65625 108.113281 206.839844 109.296875 206.839844 110.753906 L 206.839844 255.472656 C 206.839844 256.929688 205.65625 258.113281 204.199219 258.113281 C 202.742188 258.113281 201.558594 256.929688 201.558594 255.472656 L 201.558594 110.753906 C 201.558594 109.296875 202.742188 108.113281 204.199219 108.113281 Z M 204.199219 108.113281 " clip-rule="nonzero"/></clipPath><clipPath id="dbc5737f35"><path d="M 85.421875 183.113281 L 90.703125 183.113281 L 90.703125 258.132812 L 85.421875 258.132812 Z M 85.421875 183.113281 " clip-rule="nonzero"/></clipPath><clipPath id="f5eca03752"><path d="M 88.0625 183.113281 C 89.519531 183.113281 90.703125 184.296875 90.703125 185.753906 L 90.703125 255.472656 C 90.703125 256.929688 89.519531 258.113281 88.0625 258.113281 C 86.605469 258.113281 85.421875 256.929688 85.421875 255.472656 L 85.421875 185.753906 C 85.421875 184.296875 86.605469 183.113281 88.0625 183.113281 Z M 88.0625 183.113281 " clip-rule="nonzero"/></clipPath><clipPath id="b86fd77cfa"><path d="M 213 189 L 223 189 L 223 200 L 213 200 Z M 213 189 " clip-rule="nonzero"/></clipPath><clipPath id="98b7680246"><path d="M 219.589844 188.171875 L 223.957031 192.542969 L 216.140625 200.359375 L 211.773438 195.988281 Z M 219.589844 188.171875 " clip-rule="nonzero"/></clipPath><clipPath id="84139400df"><path d="M 221.773438 190.355469 C 222.351562 190.9375 222.679688 191.722656 222.679688 192.542969 C 222.679688 193.359375 222.351562 194.144531 221.773438 194.726562 L 218.339844 198.160156 C 217.761719 198.738281 216.976562 199.0625 216.15625 199.0625 C 215.335938 199.0625 214.550781 198.738281 213.972656 198.160156 C 213.390625 197.578125 213.066406 196.792969 213.066406 195.976562 C 213.066406 195.15625 213.390625 194.371094 213.972656 193.789062 L 217.40625 190.355469 C 217.984375 189.777344 218.769531 189.453125 219.589844 189.453125 C 220.410156 189.453125 221.195312 189.777344 221.773438 190.355469 Z M 221.773438 190.355469 " clip-rule="nonzero"/></clipPath><clipPath id="77e1cc1f32"><path d="M 229 103 L 310 103 L 310 183 L 229 183 Z M 229 103 " clip-rule="nonzero"/></clipPath><clipPath id="61d14a7447"><path d="M 306.160156 102.324219 L 310.527344 106.695312 L 233.042969 184.179688 L 228.675781 179.808594 Z M 306.160156 102.324219 " clip-rule="nonzero"/></clipPath><clipPath id="e0b86f9e75"><path d="M 308.34375 104.511719 C 308.921875 105.089844 309.25 105.875 309.25 106.695312 C 309.25 107.515625 308.921875 108.300781 308.34375 108.878906 L 235.238281 181.984375 C 234.660156 182.5625 233.871094 182.890625 233.054688 182.890625 C 232.234375 182.890625 231.449219 182.5625 230.867188 181.984375 C 230.289062 181.40625 229.964844 180.621094 229.964844 179.800781 C 229.964844 178.980469 230.289062 178.195312 230.867188 177.617188 L 303.972656 104.511719 C 304.554688 103.929688 305.339844 103.605469 306.160156 103.605469 C 306.976562 103.605469 307.765625 103.929688 308.34375 104.511719 Z M 308.34375 104.511719 " clip-rule="nonzero"/></clipPath><clipPath id="bae7301542"><path d="M 216 189 L 281 189 L 281 257 L 216 257 Z M 216 189 " clip-rule="nonzero"/></clipPath><clipPath id="239fa098c3"><path d="M 281.304688 253.894531 L 276.789062 258.109375 L 215.328125 192.324219 L 219.84375 188.105469 Z M 281.304688 253.894531 " clip-rule="nonzero"/></clipPath><clipPath id="f778869cd9"><path d="M 279.046875 256 C 278.445312 256.5625 277.652344 256.859375 276.832031 256.832031 C 276.011719 256.804688 275.238281 256.453125 274.679688 255.851562 L 217.449219 194.59375 C 216.890625 193.992188 216.589844 193.199219 216.617188 192.378906 C 216.648438 191.558594 217 190.785156 217.597656 190.226562 C 218.195312 189.667969 218.992188 189.367188 219.8125 189.394531 C 220.628906 189.421875 221.40625 189.777344 221.964844 190.375 L 279.195312 251.636719 C 279.753906 252.234375 280.050781 253.03125 280.023438 253.847656 C 279.996094 254.667969 279.644531 255.441406 279.046875 256 Z M 279.046875 256 " clip-rule="nonzero"/></clipPath><clipPath id="becf2493da"><path d="M 229 176 L 305 176 L 305 257 L 229 257 Z M 229 176 " clip-rule="nonzero"/></clipPath><clipPath id="8543d8d800"><path d="M 306.226562 253.886719 L 301.710938 258.105469 L 228.667969 179.917969 L 233.183594 175.699219 Z M 306.226562 253.886719 " clip-rule="nonzero"/></clipPath><clipPath id="0c1491f892"><path d="M 303.96875 255.996094 C 303.371094 256.554688 302.574219 256.851562 301.753906 256.824219 C 300.9375 256.796875 300.160156 256.445312 299.601562 255.847656 L 230.789062 182.1875 C 230.230469 181.589844 229.933594 180.792969 229.960938 179.976562 C 229.988281 179.15625 230.339844 178.382812 230.9375 177.824219 C 231.539062 177.261719 232.332031 176.964844 233.152344 176.992188 C 233.972656 177.019531 234.746094 177.371094 235.304688 177.972656 L 304.117188 251.628906 C 304.675781 252.226562 304.976562 253.023438 304.945312 253.84375 C 304.917969 254.660156 304.566406 255.4375 303.96875 255.996094 Z M 303.96875 255.996094 " clip-rule="nonzero"/></clipPath><clipPath id="639eef3fbc"><path d="M 256 105 L 334 105 L 334 182 L 256 182 Z M 256 105 " clip-rule="nonzero"/></clipPath><clipPath id="90c6d9ec39"><path d="M 329.996094 103.78125 L 334.367188 108.152344 L 259.390625 183.125 L 255.023438 178.757812 Z M 329.996094 103.78125 " clip-rule="nonzero"/></clipPath><clipPath id="6bdedfcf05"><path d="M 332.183594 105.964844 C 332.761719 106.546875 333.085938 107.332031 333.085938 108.152344 C 333.085938 108.96875 332.761719 109.757812 332.183594 110.335938 L 261.589844 180.929688 C 261.007812 181.507812 260.222656 181.832031 259.402344 181.832031 C 258.585938 181.832031 257.796875 181.507812 257.21875 180.929688 C 256.640625 180.347656 256.316406 179.5625 256.316406 178.746094 C 256.316406 177.925781 256.640625 177.140625 257.21875 176.558594 L 327.8125 105.964844 C 328.390625 105.386719 329.179688 105.0625 329.996094 105.0625 C 330.816406 105.0625 331.601562 105.386719 332.183594 105.964844 Z M 332.183594 105.964844 " clip-rule="nonzero"/></clipPath><clipPath id="9b17dca624"><path d="M 185.71875 108.113281 L 191 108.113281 L 191 258.132812 L 185.71875 258.132812 Z M 185.71875 108.113281 " clip-rule="nonzero"/></clipPath><clipPath id="ac4bd10ade"><path d="M 188.359375 108.113281 C 189.816406 108.113281 191 109.296875 191 110.753906 L 191 255.472656 C 191 256.929688 189.816406 258.113281 188.359375 258.113281 C 186.898438 258.113281 185.71875 256.929688 185.71875 255.472656 L 185.71875 110.753906 C 185.71875 109.296875 186.898438 108.113281 188.359375 108.113281 Z M 188.359375 108.113281 " clip-rule="nonzero"/></clipPath><clipPath id="ea0997da4a"><path d="M 156.148438 162.640625 L 161.429688 162.640625 L 161.429688 258.121094 L 156.148438 258.121094 Z M 156.148438 162.640625 " clip-rule="nonzero"/></clipPath><clipPath id="9e62828921"><path d="M 158.789062 162.640625 C 160.246094 162.640625 161.429688 163.824219 161.429688 165.28125 L 161.429688 255.472656 C 161.429688 256.929688 160.246094 258.113281 158.789062 258.113281 C 157.328125 258.113281 156.148438 256.929688 156.148438 255.472656 L 156.148438 165.28125 C 156.148438 163.824219 157.328125 162.640625 158.789062 162.640625 Z M 158.789062 162.640625 " clip-rule="nonzero"/></clipPath><clipPath id="732242dd0c"><path d="M 71.691406 162.640625 L 76.972656 162.640625 L 76.972656 258.121094 L 71.691406 258.121094 Z M 71.691406 162.640625 " clip-rule="nonzero"/></clipPath><clipPath id="bd80367bcc"><path d="M 74.332031 162.640625 C 75.792969 162.640625 76.972656 163.824219 76.972656 165.28125 L 76.972656 255.472656 C 76.972656 256.929688 75.792969 258.113281 74.332031 258.113281 C 72.875 258.113281 71.691406 256.929688 71.691406 255.472656 L 71.691406 165.28125 C 71.691406 163.824219 72.875 162.640625 74.332031 162.640625 Z M 74.332031 162.640625 " clip-rule="nonzero"/></clipPath><clipPath id="f62163763e"><path d="M 71 162 L 119 162 L 119 229 L 71 229 Z M 71 162 " clip-rule="nonzero"/></clipPath><clipPath id="60b4bd3c35"><path d="M 70.636719 164.5625 L 74.996094 161.582031 L 119.660156 226.867188 L 115.304688 229.847656 Z M 70.636719 164.5625 " clip-rule="nonzero"/></clipPath><clipPath id="8565445a26"><path d="M 72.816406 163.074219 C 74.019531 162.25 75.664062 162.558594 76.484375 163.761719 L 118.164062 224.679688 C 118.988281 225.886719 118.679688 227.527344 117.476562 228.351562 C 116.273438 229.175781 114.632812 228.867188 113.808594 227.664062 L 72.128906 166.742188 C 71.304688 165.539062 71.613281 163.894531 72.816406 163.074219 Z M 72.816406 163.074219 " clip-rule="nonzero"/></clipPath><clipPath id="3cd1593db5"><path d="M 68 108 L 119 108 L 119 179 L 68 179 Z M 68 108 " clip-rule="nonzero"/></clipPath><clipPath id="7d4df5cdcc"><path d="M 67.480469 109.980469 L 71.835938 107 L 119.660156 176.898438 L 115.300781 179.878906 Z M 67.480469 109.980469 " clip-rule="nonzero"/></clipPath><clipPath id="4115cf3d65"><path d="M 69.660156 108.488281 C 70.863281 107.667969 72.503906 107.972656 73.328125 109.179688 L 118.167969 174.714844 C 118.992188 175.917969 118.683594 177.5625 117.480469 178.386719 C 116.277344 179.210938 114.632812 178.902344 113.808594 177.699219 L 68.96875 112.160156 C 68.148438 110.957031 68.457031 109.3125 69.660156 108.488281 Z M 69.660156 108.488281 " clip-rule="nonzero"/></clipPath><clipPath id="af66a9e55e"><path d="M 113 107 L 164 107 L 164 179 L 113 179 Z M 113 107 " clip-rule="nonzero"/></clipPath><clipPath id="843d84f648"><path d="M 160.226562 106.75 L 164.59375 109.71875 L 116.964844 179.75 L 112.597656 176.78125 Z M 160.226562 106.75 " clip-rule="nonzero"/></clipPath><clipPath id="f7e2fb261c"><path d="M 162.410156 108.234375 C 163.617188 109.054688 163.929688 110.695312 163.109375 111.902344 L 118.453125 177.5625 C 117.632812 178.769531 115.988281 179.082031 114.785156 178.261719 C 113.578125 177.441406 113.265625 175.800781 114.085938 174.59375 L 158.742188 108.933594 C 159.5625 107.726562 161.203125 107.414062 162.410156 108.234375 Z M 162.410156 108.234375 " clip-rule="nonzero"/></clipPath><clipPath id="df922b590d"><path d="M 114 162 L 162 162 L 162 229 L 114 229 Z M 114 162 " clip-rule="nonzero"/></clipPath><clipPath id="a543ec07f4"><path d="M 158.417969 161.585938 L 162.769531 164.574219 L 117.992188 229.785156 L 113.640625 226.792969 Z M 158.417969 161.585938 " clip-rule="nonzero"/></clipPath><clipPath id="2b8c028492"><path d="M 160.59375 163.082031 C 161.796875 163.90625 162.101562 165.550781 161.277344 166.75 L 119.492188 227.601562 C 118.667969 228.800781 117.023438 229.109375 115.820312 228.28125 C 114.621094 227.457031 114.3125 225.8125 115.140625 224.609375 L 156.925781 163.761719 C 157.75 162.558594 159.394531 162.253906 160.59375 163.082031 Z M 160.59375 163.082031 " clip-rule="nonzero"/></clipPath><clipPath id="732d15e703"><path d="M 42.132812 108.113281 L 47.410156 108.113281 L 47.410156 258.132812 L 42.132812 258.132812 Z M 42.132812 108.113281 " clip-rule="nonzero"/></clipPath><clipPath id="70b6c36e82"><path d="M 44.773438 108.113281 C 46.230469 108.113281 47.410156 109.296875 47.410156 110.753906 L 47.410156 255.472656 C 47.410156 256.929688 46.230469 258.113281 44.773438 258.113281 C 43.3125 258.113281 42.132812 256.929688 42.132812 255.472656 L 42.132812 110.753906 C 42.132812 109.296875 43.3125 108.113281 44.773438 108.113281 Z M 44.773438 108.113281 " clip-rule="nonzero"/></clipPath></defs><g clip-path="url(#0d90f81e6c)"><g clip-path="url(#9f0d99250b)"><g clip-path="url(#f9d471617d)"><path fill="#000000" d="M 275.878906 102.324219 L 280.246094 106.695312 L 216.160156 170.78125 L 211.792969 166.410156 Z M 275.878906 102.324219 " fill-opacity="1" fill-rule="nonzero"/></g></g></g><g clip-path="url(#9eee5a4f76)"><g clip-path="url(#62909d8a88)"><path fill="#000000" d="M 201.558594 108.113281 L 206.839844 108.113281 L 206.839844 258.109375 L 201.558594 258.109375 Z M 201.558594 108.113281 " fill-opacity="1" fill-rule="nonzero"/></g></g><g clip-path="url(#dbc5737f35)"><g clip-path="url(#f5eca03752)"><path fill="#000000" d="M 85.421875 183.113281 L 90.703125 183.113281 L 90.703125 258.109375 L 85.421875 258.109375 Z M 85.421875 183.113281 " fill-opacity="1" fill-rule="nonzero"/></g></g><g clip-path="url(#b86fd77cfa)"><g clip-path="url(#98b7680246)"><g clip-path="url(#84139400df)"><path fill="#000000" d="M 219.589844 188.171875 L 223.957031 192.542969 L 216.160156 200.339844 L 211.789062 195.972656 Z M 219.589844 188.171875 " fill-opacity="1" fill-rule="nonzero"/></g></g></g><g clip-path="url(#77e1cc1f32)"><g clip-path="url(#61d14a7447)"><g clip-path="url(#e0b86f9e75)"><path fill="#000000" d="M 306.160156 102.324219 L 310.527344 106.695312 L 233.0625 184.160156 L 228.691406 179.792969 Z M 306.160156 102.324219 " fill-opacity="1" fill-rule="nonzero"/></g></g></g><g clip-path="url(#bae7301542)"><g clip-path="url(#239fa098c3)"><g clip-path="url(#f778869cd9)"><path fill="#000000" d="M 281.304688 253.894531 L 276.789062 258.109375 L 215.347656 192.34375 L 219.863281 188.125 Z M 281.304688 253.894531 " fill-opacity="1" fill-rule="nonzero"/></g></g></g><g clip-path="url(#becf2493da)"><g clip-path="url(#8543d8d800)"><g clip-path="url(#0c1491f892)"><path fill="#000000" d="M 306.226562 253.886719 L 301.710938 258.105469 L 228.6875 179.9375 L 233.199219 175.71875 Z M 306.226562 253.886719 " fill-opacity="1" fill-rule="nonzero"/></g></g></g><g clip-path="url(#639eef3fbc)"><g clip-path="url(#90c6d9ec39)"><g clip-path="url(#6bdedfcf05)"><path fill="#000000" d="M 329.996094 103.78125 L 334.367188 108.152344 L 259.410156 183.109375 L 255.039062 178.738281 Z M 329.996094 103.78125 " fill-opacity="1" fill-rule="nonzero"/></g></g></g><g clip-path="url(#9b17dca624)"><g clip-path="url(#ac4bd10ade)"><path fill="#000000" d="M 185.71875 108.113281 L 191 108.113281 L 191 258.109375 L 185.71875 258.109375 Z M 185.71875 108.113281 " fill-opacity="1" fill-rule="nonzero"/></g></g><g clip-path="url(#ea0997da4a)"><g clip-path="url(#9e62828921)"><path fill="#000000" d="M 156.148438 162.640625 L 161.429688 162.640625 L 161.429688 258.121094 L 156.148438 258.121094 Z M 156.148438 162.640625 " fill-opacity="1" fill-rule="nonzero"/></g></g><g clip-path="url(#732242dd0c)"><g clip-path="url(#bd80367bcc)"><path fill="#000000" d="M 71.691406 162.640625 L 76.972656 162.640625 L 76.972656 258.121094 L 71.691406 258.121094 Z M 71.691406 162.640625 " fill-opacity="1" fill-rule="nonzero"/></g></g><g clip-path="url(#f62163763e)"><g clip-path="url(#60b4bd3c35)"><g clip-path="url(#8565445a26)"><path fill="#000000" d="M 70.636719 164.5625 L 74.996094 161.582031 L 119.660156 226.867188 L 115.304688 229.847656 Z M 70.636719 164.5625 " fill-opacity="1" fill-rule="nonzero"/></g></g></g><g clip-path="url(#3cd1593db5)"><g clip-path="url(#7d4df5cdcc)"><g clip-path="url(#4115cf3d65)"><path fill="#000000" d="M 67.480469 109.980469 L 71.835938 107 L 119.660156 176.898438 L 115.300781 179.878906 Z M 67.480469 109.980469 " fill-opacity="1" fill-rule="nonzero"/></g></g></g><g clip-path="url(#af66a9e55e)"><g clip-path="url(#843d84f648)"><g clip-path="url(#f7e2fb261c)"><path fill="#000000" d="M 160.226562 106.75 L 164.59375 109.71875 L 116.964844 179.75 L 112.597656 176.78125 Z M 160.226562 106.75 " fill-opacity="1" fill-rule="nonzero"/></g></g></g><g clip-path="url(#df922b590d)"><g clip-path="url(#a543ec07f4)"><g clip-path="url(#2b8c028492)"><path fill="#000000" d="M 158.417969 161.585938 L 162.769531 164.574219 L 117.992188 229.785156 L 113.640625 226.792969 Z M 158.417969 161.585938 " fill-opacity="1" fill-rule="nonzero"/></g></g></g><g clip-path="url(#732d15e703)"><g clip-path="url(#70b6c36e82)"><path fill="#000000" d="M 42.132812 108.113281 L 47.410156 108.113281 L 47.410156 258.109375 L 42.132812 258.109375 Z M 42.132812 108.113281 " fill-opacity="1" fill-rule="nonzero"/></g></g></svg>